# xmcd CD database file
#
# Track frame offsets:
#	150
#	14733
#	25316
#	39834
#	54766
#	67786
#	83430
#	99075
#	109357
#	122410
#	135278
#	153285
#	166941
#
# Disc length: 2658 seconds
#
# Revision: 2
# Processed by: cddbd v1.5.2PL0 Copyright (c) Steve Scherf et al.
# Submitted via: CDex 1.70beta2
#
DISCID=880a600d
DTITLE=Reverend Bob and Just In Time - Hayride
DYEAR=2011
DGENRE=Country
TTITLE0=Hayride
TTITLE1=I Don't Need Another Heartche
TTITLE2=I Lost My Wife
TTITLE3=Bad Case Of Lovin You
TTITLE4=Beaumount Rag
TTITLE5=Santa Fe
TTITLE6=I Wanna Me Sedated
TTITLE7=Why Don't You Love Me
TTITLE8=A Simple Country Song
TTITLE9=Big Dan
TTITLE10=You Are My Sunshine - Duet With Linda Dahl
TTITLE11=Halleluja Makes It Right
TTITLE12=Halleluja Makes It Right (Dance Remix)
EXTD=YEAR: 2011
EXTT0=
EXTT1=
EXTT2=
EXTT3=
EXTT4=
EXTT5=
EXTT6=
EXTT7=
EXTT8=
EXTT9=
EXTT10=
EXTT11=
EXTT12=
PLAYORDER=
